<?xml version="1.0" encoding="utf-8"?>
<!-- Generator: Adobe Illustrator 23.0.3, SVG Export Plug-In . SVG Version: 6.00 Build 0)  -->
<svg version="1.1" id="Layer_1" xmlns="http://www.w3.org/2000/svg" xmlns:xlink="http://www.w3.org/1999/xlink" x="0px" y="0px"
	 viewBox="0 0 72.5 72.8" style="enable-background:new 0 0 72.5 72.8;" xml:space="preserve">
<style type="text/css">
	.st0{opacity:0.2;fill:url(#SVGID_1_);}
	.st1{fill:#0C5ADB;}
</style>
<g>
	<linearGradient id="SVGID_1_" gradientUnits="userSpaceOnUse" x1="10.4074" y1="10.8778" x2="49.198" y2="49.6685">
		<stop  offset="0" style="stop-color:#0C5ADB"/>
		<stop  offset="1" style="stop-color:#FFFFFF"/>
	</linearGradient>
	<path class="st0" d="M72.5,27.6L36.8,63.3l-0.7-0.7c0,0,0,0,0,0l-1-1c0,0,0,0,0,0l-1-1c0,0,0,0,0,0l-1-1c0,0,0,0,0,0l-1-1
		c0,0,0,0,0,0l-1-1c0,0,0,0,0,0l-1-1c0,0,0,0,0,0l-1-1c0,0,0,0,0,0l-1-1c0,0,0,0,0,0l-1-1c0,0,0,0,0,0l-1-1c0,0,0,0,0,0l-1-1
		c0,0,0,0,0,0l-1-1c0,0,0,0,0,0l-1-1c0,0,0,0,0,0l-1-1c0,0,0,0,0,0l-1-1c0,0,0,0,0,0l-1-1c0,0,0,0,0,0l-1-1c0,0,0,0,0,0l-1-1
		c0,0,0,0,0,0l-1-1c0,0,0,0,0,0l-1-1c0,0,0,0,0,0l-1-1c0,0,0,0,0,0l-1-1c0,0,0,0,0,0l-1-1c0,0,0,0,0,0l-1-1c0,0,0,0,0,0l-1-1
		c0,0,0,0,0,0l-1-1c0,0,0,0,0,0l-1-1c0,0,0,0,0,0l-1-1c0,0,0,0,0,0l-1-1c-0.1-0.1-0.2-0.2-0.2-0.3c-0.1-0.1-0.2-0.2-0.3-0.2
		c-0.1-0.2-0.2-0.3-0.3-0.5c0,0,0-0.1,0-0.1c-0.2-0.1-0.5-0.2-0.7-0.4c-0.1-0.2-0.2-0.3-0.3-0.5c0,0,0-0.1,0-0.1
		c-0.2-0.1-0.5-0.2-0.7-0.4c-0.1-0.2-0.2-0.3-0.3-0.5c0,0,0-0.1,0-0.1c-0.2-0.1-0.5-0.2-0.7-0.4c-0.1-0.2-0.2-0.3-0.3-0.5
		c0,0,0-0.1,0-0.1c-0.2-0.1-0.5-0.2-0.7-0.4c-0.1-0.2-0.2-0.3-0.3-0.5c0,0,0-0.1,0-0.1c-0.2-0.1-0.5-0.2-0.7-0.4
		c-0.1-0.2-0.2-0.3-0.3-0.5c-0.9-1.9-1.3-3.9-1.3-5.9c0-0.8,0-1.6,0.1-2.4c0.4-2.5,1.5-4.8,3.4-6.7c1.7-1.7,3.8-2.8,6-3.3
		c1.9-0.4,3.8-0.3,5.7,0.1l0.3-0.3l0-0.1h0c4-4,8.8-6.6,13.9-8c5.3-1.4,10.8-1.4,16.1,0c0.6,0.1,1,0.6,1.2,1.1c0.5,0.2,0.8,0.6,1,1
		c0.5,0.2,0.8,0.6,1,1c0.5,0.2,0.8,0.6,1,1c0.5,0.2,0.8,0.6,1,1c0.5,0.2,0.8,0.6,1,1c0.5,0.2,0.8,0.6,1,1c0.5,0.2,0.8,0.6,1,1
		c0.5,0.2,0.8,0.6,1,1c0.5,0.2,0.8,0.6,1,1c0.5,0.2,0.8,0.6,1,1c0.5,0.2,0.8,0.6,1,1c0.5,0.2,0.8,0.6,1,1c0.5,0.2,0.8,0.6,1,1
		c0.5,0.2,0.8,0.6,1,1c0.5,0.2,0.8,0.6,1,1c0.5,0.2,0.8,0.6,1,1c0.5,0.2,0.8,0.6,1,1c0.5,0.2,0.8,0.6,1,1c0.5,0.2,0.8,0.6,1,1
		c0.5,0.2,0.8,0.6,1,1c0.5,0.2,0.8,0.6,1,1c0.5,0.2,0.8,0.6,1,1c0.5,0.2,0.8,0.6,1,1c0.5,0.2,0.8,0.6,1,1c0.5,0.2,0.8,0.6,1,1
		C72.1,27.3,72.3,27.4,72.5,27.6z M35.1,64.4c0-0.1-0.1-0.1-0.1-0.2c0,0-0.1,0-0.1-0.1c0,0-0.1-0.1-0.1-0.1
		c-0.1-0.1-0.1-0.1-0.2-0.1c-0.1-0.1-0.1-0.2-0.2-0.3c-0.1-0.1-0.2-0.1-0.3-0.2c0-0.1-0.1-0.1-0.1-0.2c0,0-0.1,0-0.1-0.1
		c0,0-0.1-0.1-0.1-0.1c-0.1-0.1-0.1-0.1-0.2-0.1c-0.1-0.1-0.1-0.2-0.2-0.3c-0.1-0.1-0.2-0.1-0.3-0.2c0-0.1-0.1-0.1-0.1-0.2
		c0,0-0.1,0-0.1-0.1c0,0-0.1-0.1-0.1-0.1c-0.1-0.1-0.1-0.1-0.2-0.1c-0.1-0.1-0.1-0.2-0.2-0.3c-0.1-0.1-0.2-0.1-0.3-0.2
		c0-0.1-0.1-0.1-0.1-0.2c0,0-0.1,0-0.1-0.1c0,0-0.1-0.1-0.1-0.1c-0.1-0.1-0.1-0.1-0.2-0.1c-0.1-0.1-0.1-0.2-0.2-0.3
		c-0.1-0.1-0.2-0.1-0.3-0.2c0-0.1-0.1-0.1-0.1-0.2c0,0-0.1,0-0.1-0.1c0,0-0.1-0.1-0.1-0.1c-0.1-0.1-0.1-0.1-0.2-0.1
		c-0.1-0.1-0.1-0.2-0.2-0.3c-0.1-0.1-0.2-0.1-0.3-0.2c0-0.1-0.1-0.1-0.1-0.2c0,0-0.1,0-0.1-0.1c0,0-0.1-0.1-0.1-0.1
		c-0.1-0.1-0.1-0.1-0.2-0.1c-0.1-0.1-0.1-0.2-0.2-0.3c-0.1-0.1-0.2-0.1-0.3-0.2c0-0.1-0.1-0.1-0.1-0.2c0,0-0.1,0-0.1-0.1
		c0,0-0.1-0.1-0.1-0.1c-0.1-0.1-0.1-0.1-0.2-0.1c-0.1-0.1-0.1-0.2-0.2-0.3c-0.1-0.1-0.2-0.1-0.3-0.2c0-0.1-0.1-0.1-0.1-0.2
		c0,0-0.1,0-0.1-0.1c0,0-0.1-0.1-0.1-0.1c-0.1-0.1-0.1-0.1-0.2-0.1c-0.1-0.1-0.1-0.2-0.2-0.3c-0.1-0.1-0.2-0.1-0.3-0.2
		c0-0.1-0.1-0.1-0.1-0.2c0,0-0.1,0-0.1-0.1c0,0-0.1-0.1-0.1-0.1c-0.1-0.1-0.1-0.1-0.2-0.1c-0.1-0.1-0.1-0.2-0.2-0.3
		c-0.1-0.1-0.2-0.1-0.3-0.2c0-0.1-0.1-0.1-0.1-0.2c0,0-0.1,0-0.1-0.1c0,0-0.1-0.1-0.1-0.1c-0.1-0.1-0.1-0.1-0.2-0.1
		c-0.1-0.1-0.1-0.2-0.2-0.3c-0.1-0.1-0.2-0.1-0.3-0.2c0-0.1-0.1-0.1-0.1-0.2c0,0-0.1,0-0.1-0.1c0,0-0.1-0.1-0.1-0.1
		c-0.1-0.1-0.1-0.1-0.2-0.1c-0.1-0.1-0.1-0.2-0.2-0.3c-0.1-0.1-0.2-0.1-0.3-0.2c0-0.1-0.1-0.1-0.1-0.2c0,0-0.1,0-0.1-0.1
		c0,0-0.1-0.1-0.1-0.1c-0.1-0.1-0.1-0.1-0.2-0.1c-0.1-0.1-0.1-0.2-0.2-0.3c-0.1-0.1-0.2-0.1-0.3-0.2c0-0.1-0.1-0.1-0.1-0.2
		c0,0-0.1,0-0.1-0.1c0,0-0.1-0.1-0.1-0.1c-0.1-0.1-0.1-0.1-0.2-0.1c-0.1-0.1-0.1-0.2-0.2-0.3c-0.1-0.1-0.2-0.1-0.3-0.2
		c0-0.1-0.1-0.1-0.1-0.2c0,0-0.1,0-0.1-0.1c0,0-0.1-0.1-0.1-0.1c-0.1-0.1-0.1-0.1-0.2-0.1c-0.1-0.1-0.1-0.2-0.2-0.3
		c-0.1-0.1-0.2-0.1-0.3-0.2c0-0.1-0.1-0.1-0.1-0.2c0,0-0.1,0-0.1-0.1c0,0-0.1-0.1-0.1-0.1c-0.1-0.1-0.1-0.1-0.2-0.1
		c-0.1-0.1-0.1-0.2-0.2-0.3c-0.1-0.1-0.2-0.1-0.3-0.2c0-0.1-0.1-0.1-0.1-0.2c0,0-0.1,0-0.1-0.1c0,0-0.1-0.1-0.1-0.1
		c-0.1-0.1-0.1-0.1-0.2-0.1c-0.1-0.1-0.1-0.2-0.2-0.3c-0.1-0.1-0.2-0.1-0.3-0.2c0-0.1-0.1-0.1-0.1-0.2c0,0-0.1,0-0.1-0.1
		c0,0-0.1-0.1-0.1-0.1c-0.1-0.1-0.1-0.1-0.2-0.1c-0.1-0.1-0.1-0.2-0.2-0.3c-0.1-0.1-0.2-0.1-0.3-0.2c0-0.1-0.1-0.1-0.1-0.2
		c0,0-0.1,0-0.1-0.1c0,0-0.1-0.1-0.1-0.1c-0.1-0.1-0.1-0.1-0.2-0.1c-0.1-0.1-0.1-0.2-0.2-0.3c-0.1-0.1-0.2-0.1-0.3-0.2
		c0-0.1-0.1-0.1-0.1-0.2c0,0-0.1,0-0.1-0.1c0,0-0.1-0.1-0.1-0.1c-0.1-0.1-0.1-0.1-0.2-0.1c-0.1-0.1-0.1-0.2-0.2-0.3
		c-0.1-0.1-0.2-0.1-0.3-0.2c0-0.1-0.1-0.1-0.1-0.2c0,0-0.1,0-0.1-0.1c0,0-0.1-0.1-0.1-0.1c-0.1-0.1-0.1-0.1-0.2-0.1
		c-0.1-0.1-0.1-0.2-0.2-0.3c-0.1-0.1-0.2-0.1-0.3-0.2c0-0.1-0.1-0.1-0.1-0.2c0,0-0.1,0-0.1-0.1c0,0-0.1-0.1-0.1-0.1
		c-0.1-0.1-0.1-0.1-0.2-0.1c-0.1-0.1-0.1-0.2-0.2-0.3c-0.1-0.1-0.2-0.1-0.3-0.2c0-0.1-0.1-0.1-0.1-0.2c0,0-0.1,0-0.1-0.1
		c0,0-0.1-0.1-0.1-0.1c-0.1-0.1-0.1-0.1-0.2-0.1c-0.1-0.1-0.1-0.2-0.2-0.3c-0.1-0.1-0.2-0.1-0.3-0.2c0-0.1-0.1-0.1-0.1-0.2
		c0,0-0.1,0-0.1-0.1c0,0-0.1-0.1-0.1-0.1c-0.1-0.1-0.1-0.1-0.2-0.1c-0.1-0.1-0.1-0.2-0.2-0.3c-0.1-0.1-0.2-0.1-0.3-0.2
		c0-0.1-0.1-0.1-0.1-0.2c-0.1-0.1-0.2-0.2-0.3-0.2c-0.1-0.1-0.1-0.3-0.3-0.4c-0.1-0.1-0.2-0.1-0.3-0.2c0-0.1-0.1-0.1-0.1-0.2
		c-0.1-0.1-0.2-0.2-0.3-0.2c-0.1-0.1-0.1-0.3-0.3-0.4c-0.1-0.1-0.2-0.1-0.3-0.2c0-0.1-0.1-0.1-0.1-0.2c-0.1-0.1-0.2-0.2-0.3-0.2
		c-0.1-0.1-0.1-0.3-0.3-0.4c-0.1-0.1-0.2-0.1-0.3-0.2c0-0.1-0.1-0.1-0.1-0.2c-0.2-0.2-0.4-0.3-0.7-0.3c0-0.3-0.1-0.5-0.3-0.7
		c-0.2-0.2-0.4-0.3-0.7-0.3c0-0.3-0.1-0.5-0.3-0.7c-0.2-0.2-0.4-0.3-0.7-0.3c0-0.3-0.1-0.5-0.3-0.7c-0.4-0.4-1.1-0.4-1.5,0L1.7,38
		c-0.3,0.4-0.4,0.9-0.2,1.3c-0.2,0.4-0.2,0.9,0.2,1.3c0.2,0.2,0.4,0.3,0.7,0.3c0,0.2,0.1,0.5,0.3,0.7c0.2,0.2,0.4,0.3,0.7,0.3
		c0,0.2,0.1,0.5,0.3,0.7c0,0,0.1,0.1,0.2,0.1l-2.2,2.2c-0.4,0.3-0.4,0.9-0.2,1.3c-0.2,0.4-0.2,0.9,0.2,1.3c0.2,0.2,0.4,0.3,0.7,0.3
		c0,0.2,0.1,0.5,0.3,0.7c0.2,0.2,0.4,0.3,0.7,0.3c0,0.2,0.1,0.5,0.3,0.7c0.2,0.2,0.4,0.3,0.7,0.3c0,0.2,0.1,0.5,0.3,0.7
		c0.2,0.2,0.4,0.3,0.7,0.3c0,0.2,0.1,0.5,0.3,0.7c0.2,0.2,0.4,0.3,0.7,0.3c0,0.2,0.1,0.5,0.3,0.7c0.2,0.2,0.4,0.3,0.7,0.3
		c0,0.2,0.1,0.5,0.3,0.7c0.2,0.2,0.4,0.3,0.7,0.3c0,0.2,0.1,0.5,0.3,0.7c0.2,0.2,0.4,0.3,0.7,0.3c0,0.2,0.1,0.5,0.3,0.7
		c0.2,0.2,0.4,0.3,0.7,0.3c0,0.2,0.1,0.5,0.3,0.7c0.2,0.2,0.4,0.3,0.7,0.3c0,0.2,0.1,0.5,0.3,0.7c0.2,0.2,0.4,0.3,0.7,0.3
		c0,0.2,0.1,0.5,0.3,0.7c0.2,0.2,0.4,0.3,0.7,0.3c0,0.2,0.1,0.5,0.3,0.7c0.2,0.2,0.4,0.3,0.7,0.3c0,0.2,0.1,0.5,0.3,0.7
		c0.2,0.2,0.4,0.3,0.7,0.3c0,0.2,0.1,0.5,0.3,0.7c0.2,0.2,0.4,0.3,0.7,0.3c0,0.2,0.1,0.5,0.3,0.7c0.2,0.2,0.4,0.3,0.7,0.3
		c0,0.2,0.1,0.5,0.3,0.7c0.2,0.2,0.4,0.3,0.7,0.3c0,0.2,0.1,0.5,0.3,0.7c0.2,0.2,0.4,0.3,0.7,0.3c0,0.2,0.1,0.5,0.3,0.7
		c0.2,0.2,0.4,0.3,0.7,0.3c0,0.2,0.1,0.5,0.3,0.7c0.2,0.2,0.4,0.3,0.7,0.3c0,0.2,0.1,0.5,0.3,0.7c0.2,0.2,0.4,0.3,0.7,0.3
		c0,0.2,0.1,0.5,0.3,0.7c0.2,0.2,0.4,0.3,0.7,0.3c0,0.2,0.1,0.5,0.3,0.7c0.2,0.2,0.4,0.3,0.7,0.3c0,0.2,0.1,0.5,0.3,0.7
		c0.2,0.2,0.4,0.3,0.7,0.3c0,0.2,0.1,0.5,0.3,0.7c0.2,0.2,0.4,0.3,0.7,0.3c0,0.2,0.1,0.5,0.3,0.7c0.2,0.2,0.4,0.3,0.7,0.3
		c0,0,0,0,0,0.1l8.1-8.1c0,0,0,0,0-0.1C35.3,64.5,35.2,64.5,35.1,64.4z"/>
	<path class="st1" d="M4.4,35.2c0.4-0.4,1.1-0.4,1.5,0c0.4,0.4,0.4,1.1,0,1.6l-2.7,2.7c-0.4,0.4-1.2,0.4-1.6,0
		c-0.4-0.4-0.4-1.1,0-1.6L4.4,35.2L4.4,35.2z M38.8,16L38.8,16c0,3.8-3.1,6.9-6.9,6.9c-3.8,0-6.9-3.1-6.9-6.9c0-3.8,3.1-6.9,6.9-6.9
		C35.8,9.2,38.8,12.2,38.8,16L38.8,16z M32,12.2L32,12.2c-2.1,0-3.9,1.7-3.9,3.9c0,2.1,1.7,3.8,3.9,3.8c2.1,0,3.9-1.7,3.9-3.8
		C35.8,13.9,34.1,12.2,32,12.2L32,12.2z M6.6,31.2L6.6,31.2c0-1.4,0.1-2.8,0.3-4.3c0.1-0.5,0.1-1,0.2-1.5l-0.4,0.2
		c-0.9,0.4-1.7,0.9-2.5,1.6c-0.7,0.7-1.9,0.6-2.6-0.1c-0.1-0.2-0.2-0.3-0.3-0.5c-1.2-2.3-1.5-4.9-1.1-7.3c0.4-2.5,1.5-4.8,3.4-6.7
		l0,0l0,0c1.7-1.7,3.8-2.8,6-3.3c1.9-0.4,3.8-0.3,5.7,0.1l0.3-0.3l0-0.1h0c4-4,8.8-6.6,13.9-8c5.3-1.4,10.8-1.4,16.1,0
		c0.7,0.2,1.2,0.7,1.3,1.3v0v0c1.4,5.2,1.4,10.8,0,16c-1.4,5.1-4,9.9-8,13.9l-0.1,0.1l-0.3,0.2c0.5,1.9,0.6,3.8,0.1,5.7
		c-0.5,2.2-1.6,4.3-3.3,6l-0.1,0.1c-1.9,1.8-4.2,2.9-6.6,3.3c-2.5,0.4-5.1,0-7.4-1.2c-0.9-0.4-1.3-1.6-0.8-2.5
		c0.1-0.1,0.2-0.3,0.3-0.4c0.7-0.7,1.2-1.6,1.6-2.5l0.2-0.4c-0.5,0.1-1,0.2-1.5,0.2c-1.5,0.2-2.9,0.3-4.4,0.2
		c-0.5,0-0.9-0.2-1.3-0.5l0,0l-8.2-8.2C6.7,32.3,6.5,31.8,6.6,31.2L6.6,31.2z M10.5,27.4L10.5,27.4c-0.1,1-0.2,2.1-0.2,3.1l7.1,7.2
		c1,0,2.1-0.1,3.1-0.2c1.3-0.2,2.6-0.4,3.8-0.8c0.2,0,0.4-0.1,0.6-0.1c1,0,1.8,0.9,1.8,1.9c-0.1,1.4-0.4,2.8-0.9,4.2
		c-0.2,0.5-0.4,0.9-0.7,1.4c1,0.2,2,0.2,3.1,0.1c1.7-0.3,3.3-1,4.6-2.3l0.1-0.1c1.2-1.2,2-2.7,2.3-4.2c0.4-1.6,0.2-3.3-0.4-4.8
		c-0.3-0.7-0.1-1.5,0.5-2l0.6-0.6l0.5-0.5l0.1-0.1c3.5-3.5,5.9-7.8,7.1-12.2c1.2-4.3,1.3-8.8,0.3-13.2c-4.3-1-8.8-0.9-13.1,0.3
		c-4.5,1.2-8.7,3.6-12.2,7.1l-0.5,0.5h0l-0.5,0.6c-0.5,0.6-1.3,0.8-2.1,0.5c-1.5-0.6-3.2-0.7-4.8-0.4c-1.5,0.3-3,1.1-4.2,2.3v0
		c-1.3,1.3-2.1,2.9-2.4,4.7c-0.2,1-0.2,2,0.1,3c0.5-0.3,0.9-0.5,1.4-0.7c1.3-0.6,2.7-0.8,4.1-0.9c0.2,0,0.4,0,0.6,0.1
		c1,0.2,1.5,1.3,1.3,2.3C10.9,24.9,10.7,26.2,10.5,27.4L10.5,27.4z M11.2,42L11.2,42c0.4-0.4,1.1-0.4,1.5,0c0.4,0.4,0.4,1.1,0,1.6
		L10,46.3c-0.4,0.4-1.1,0.4-1.5,0c-0.4-0.4-0.4-1.1,0-1.6L11.2,42L11.2,42z M7.8,38.6L7.8,38.6c0.4-0.4,1.1-0.4,1.5,0
		c0.4,0.4,0.4,1.1,0,1.6l-6.2,6.2c-0.4,0.4-1.1,0.4-1.5,0c-0.5-0.4-0.5-1.1,0-1.6L7.8,38.6L7.8,38.6z"/>
</g>
</svg>
