<?xml version="1.0" encoding="utf-8"?>
<!-- Generator: Adobe Illustrator 23.0.3, SVG Export Plug-In . SVG Version: 6.00 Build 0)  -->
<svg version="1.1" id="Layer_1" xmlns="http://www.w3.org/2000/svg" xmlns:xlink="http://www.w3.org/1999/xlink" x="0px" y="0px"
	 viewBox="0 0 62.2 72.9" style="enable-background:new 0 0 62.2 72.9;" xml:space="preserve">
<style type="text/css">
	.st0{opacity:0.2;fill:url(#SVGID_1_);}
	.st1{fill:#0C5ADB;}
</style>
<g>
	<linearGradient id="SVGID_1_" gradientUnits="userSpaceOnUse" x1="1.9523" y1="12.7045" x2="44.0555" y2="54.8077">
		<stop  offset="0" style="stop-color:#0C5ADB"/>
		<stop  offset="8.955014e-02" style="stop-color:#135FDC"/>
		<stop  offset="0.2245" style="stop-color:#286DDF"/>
		<stop  offset="0.3881" style="stop-color:#4A84E4"/>
		<stop  offset="0.5742" style="stop-color:#79A4EB"/>
		<stop  offset="0.7791" style="stop-color:#B6CDF4"/>
		<stop  offset="0.9971" style="stop-color:#FEFEFF"/>
		<stop  offset="1" style="stop-color:#FFFFFF"/>
	</linearGradient>
	<path class="st0" d="M2.1,48c0.1,0.2,0.3,0.4,0.4,0.5c0.2,0.2,0.4,0.3,0.6,0.5c0.1,0.2,0.3,0.4,0.4,0.5c0.2,0.2,0.4,0.3,0.6,0.5
		c0.1,0.2,0.3,0.4,0.4,0.5c0.2,0.2,0.4,0.3,0.6,0.5c0.1,0.2,0.3,0.4,0.4,0.5c0.2,0.2,0.4,0.3,0.6,0.5c0.1,0.2,0.3,0.4,0.4,0.5
		c0.2,0.2,0.4,0.3,0.6,0.5c0.1,0.2,0.3,0.4,0.4,0.5c0.2,0.2,0.4,0.3,0.6,0.5c0.1,0.2,0.3,0.4,0.4,0.5c0.2,0.2,0.4,0.3,0.6,0.5
		c0.1,0.2,0.3,0.4,0.4,0.5c0.2,0.2,0.4,0.3,0.6,0.5c0.1,0.2,0.3,0.4,0.4,0.5c0.2,0.2,0.4,0.3,0.6,0.5c0.1,0.2,0.3,0.4,0.4,0.5
		c0.2,0.2,0.4,0.3,0.6,0.5c0.1,0.2,0.3,0.4,0.4,0.5c0.2,0.2,0.4,0.3,0.6,0.5c0.1,0.2,0.3,0.4,0.4,0.5c0.2,0.2,0.4,0.3,0.6,0.5
		c0.1,0.2,0.3,0.4,0.4,0.5c0.2,0.2,0.4,0.3,0.6,0.5c0.1,0.2,0.3,0.4,0.4,0.5c0.2,0.2,0.4,0.3,0.6,0.5c0.1,0.2,0.3,0.4,0.4,0.5
		c0.2,0.2,0.4,0.3,0.6,0.5c0.1,0.2,0.3,0.4,0.4,0.5c0.2,0.2,0.4,0.3,0.6,0.5c0.1,0.2,0.3,0.4,0.4,0.5c0.2,0.2,0.4,0.3,0.6,0.5
		c0.1,0.2,0.3,0.4,0.4,0.5c0.2,0.2,0.4,0.3,0.6,0.5c0.1,0.2,0.3,0.4,0.4,0.5c0.2,0.2,0.4,0.3,0.6,0.5c0.1,0.2,0.3,0.4,0.4,0.5
		c0.2,0.2,0.4,0.3,0.6,0.5c0.1,0.2,0.3,0.4,0.4,0.5c0.2,0.2,0.4,0.3,0.6,0.5c0.1,0.2,0.3,0.4,0.4,0.5c0.2,0.2,0.4,0.3,0.6,0.5
		c0.1,0.2,0.3,0.4,0.4,0.5c0.2,0.2,0.4,0.3,0.6,0.5c0.1,0.2,0.3,0.4,0.4,0.5c0.2,0.2,0.4,0.3,0.6,0.5c0.1,0.2,0.3,0.4,0.4,0.5
		c0.2,0.2,0.3,0.3,0.5,0.4l35.2-35.2c-0.1-0.1-0.2-0.2-0.3-0.2c-0.2-0.2-0.3-0.4-0.5-0.5c-0.2-0.2-0.3-0.3-0.5-0.5
		c-0.2-0.2-0.3-0.4-0.5-0.5c-0.2-0.2-0.3-0.3-0.5-0.5c-0.2-0.2-0.3-0.4-0.5-0.5c-0.2-0.2-0.3-0.3-0.5-0.5c-0.2-0.2-0.3-0.4-0.5-0.5
		c-0.2-0.2-0.3-0.3-0.5-0.5c-0.2-0.2-0.3-0.4-0.5-0.5c-0.2-0.2-0.3-0.3-0.5-0.5c-0.2-0.2-0.3-0.4-0.5-0.5c-0.2-0.2-0.3-0.3-0.5-0.5
		c-0.2-0.2-0.3-0.4-0.5-0.5c-0.2-0.2-0.3-0.3-0.5-0.5c-0.2-0.2-0.3-0.4-0.5-0.5c-0.2-0.2-0.3-0.3-0.5-0.5c-0.2-0.2-0.3-0.4-0.5-0.5
		c-0.2-0.2-0.3-0.3-0.5-0.5c-0.2-0.2-0.3-0.4-0.5-0.5c-0.2-0.2-0.3-0.3-0.5-0.5c-0.2-0.2-0.3-0.4-0.5-0.5c-0.2-0.2-0.3-0.3-0.5-0.5
		c-0.2-0.2-0.3-0.4-0.5-0.5c-0.2-0.2-0.3-0.3-0.5-0.5c-0.2-0.2-0.3-0.4-0.5-0.5c-0.2-0.2-0.3-0.3-0.5-0.5c-0.2-0.2-0.3-0.4-0.5-0.5
		c-0.2-0.2-0.3-0.3-0.5-0.5c-0.2-0.2-0.3-0.4-0.5-0.5c-0.2-0.2-0.3-0.3-0.5-0.5c-0.2-0.2-0.3-0.4-0.5-0.5c-0.2-0.2-0.3-0.3-0.5-0.5
		c-0.2-0.2-0.3-0.4-0.5-0.5c-0.2-0.2-0.3-0.3-0.5-0.5c-0.2-0.2-0.3-0.4-0.5-0.5c-0.2-0.2-0.3-0.3-0.5-0.5c-0.2-0.2-0.3-0.4-0.5-0.5
		c-0.2-0.2-0.3-0.3-0.5-0.5c-0.2-0.2-0.3-0.4-0.5-0.5c-0.2-0.2-0.3-0.3-0.5-0.5c-0.2-0.2-0.3-0.4-0.5-0.5c-0.2-0.2-0.3-0.3-0.5-0.5
		c-0.2-0.2-0.3-0.4-0.5-0.5c-0.2-0.2-0.3-0.3-0.5-0.5c-0.2-0.2-0.3-0.4-0.5-0.5c-0.2-0.2-0.3-0.3-0.5-0.5c-0.2-0.2-0.3-0.4-0.5-0.5
		c-0.2-0.2-0.3-0.3-0.5-0.5c-0.2-0.2-0.3-0.4-0.5-0.5c-0.2-0.2-0.3-0.3-0.5-0.5c-0.2-0.2-0.3-0.4-0.5-0.5c-0.2-0.2-0.3-0.3-0.5-0.5
		c-0.2-0.2-0.3-0.4-0.5-0.5c-0.2-0.2-0.3-0.3-0.5-0.5c-0.2-0.2-0.3-0.4-0.5-0.5c-0.2-0.2-0.3-0.3-0.5-0.5c-0.2-0.2-0.3-0.4-0.5-0.5
		c-0.2-0.2-0.3-0.3-0.5-0.5c-0.2-0.2-0.3-0.4-0.5-0.5c-0.2-0.2-0.3-0.3-0.5-0.5c-0.2-0.2-0.3-0.4-0.5-0.5c-0.2-0.2-0.3-0.3-0.5-0.5
		c-0.2-0.2-0.3-0.4-0.5-0.5c-0.2-0.2-0.3-0.3-0.5-0.5c-0.2-0.2-0.3-0.4-0.5-0.5c-0.2-0.2-0.3-0.3-0.5-0.5c-0.2-0.2-0.3-0.4-0.5-0.5
		C26,1.5,22.7,0,19,0C15.3,0,12,1.5,9.6,3.9L9.4,4c-2.4,2.4-4,5.8-4,9.5v1V19H5.1c-1.4,0-2.7,0.6-3.6,1.5h0l0,0
		C0.6,21.4,0,22.7,0,24.1v1v17.7v1c0,1.4,0.6,2.7,1.5,3.6C1.7,47.7,1.9,47.8,2.1,48z"/>
	<path class="st1" d="M36.4,20.5c-0.9-0.9-2.2-1.5-3.6-1.5h-0.4v-5.6c0-3.7-1.5-7-3.9-9.5C26,1.5,22.7,0,19,0C15.3,0,12,1.5,9.6,3.9
		L9.4,4c-2.4,2.4-4,5.8-4,9.5V19H5.1c-1.4,0-2.7,0.6-3.6,1.5h0l0,0C0.6,21.4,0,22.7,0,24.1v18.7c0,1.4,0.6,2.7,1.5,3.6
		C2.4,47.4,3.7,48,5.1,48h27.7c1.3,0,2.6-0.5,3.5-1.4l0.1-0.1c0.9-0.9,1.5-2.2,1.5-3.6V24.1C37.9,22.7,37.4,21.4,36.4,20.5
		L36.4,20.5z M9.7,13.4L9.7,13.4c0-2.5,1-4.8,2.7-6.5l0.1-0.1c1.7-1.6,3.9-2.6,6.4-2.6c2.5,0,4.8,1.1,6.5,2.7c1.7,1.7,2.7,4,2.7,6.5
		V19H9.7V13.4L9.7,13.4z M33.7,42.9L33.7,42.9c0,0.2-0.1,0.5-0.3,0.6l-0.1,0.1c-0.1,0.1-0.3,0.2-0.6,0.2H5.1c-0.2,0-0.5-0.1-0.6-0.3
		c-0.2-0.2-0.3-0.4-0.3-0.6V24.1c0-0.2,0.1-0.5,0.3-0.6l0,0c0.2-0.2,0.4-0.3,0.6-0.3h27.7c0.3,0,0.5,0.1,0.6,0.3
		c0.2,0.2,0.3,0.4,0.3,0.6V42.9L33.7,42.9z M19,26.5L19,26.5c-1.4,0-2.7,0.6-3.6,1.5c-0.9,0.9-1.5,2.2-1.5,3.6
		c0,1.4,0.6,2.7,1.5,3.6c0.6,0.6,1.4,1.1,2.3,1.3v2.6c0,0.7,0.6,1.3,1.3,1.3c0.7,0,1.2-0.6,1.2-1.3v-2.6c0.9-0.2,1.7-0.7,2.4-1.3
		c0.9-0.9,1.5-2.2,1.5-3.6c0-1.4-0.6-2.7-1.5-3.6C21.6,27.1,20.4,26.5,19,26.5L19,26.5z M20.8,33.5L20.8,33.5
		c-0.4,0.4-1.1,0.8-1.7,0.8H19h-0.1c-0.7,0-1.3-0.3-1.8-0.8c-0.5-0.5-0.7-1.1-0.7-1.8c0-0.7,0.3-1.4,0.7-1.8
		c0.5-0.5,1.1-0.8,1.8-0.8c0.7,0,1.4,0.3,1.8,0.8c0.5,0.5,0.8,1.1,0.8,1.8C21.5,32.4,21.2,33,20.8,33.5L20.8,33.5z"/>
</g>
</svg>
