<?xml version="1.0" encoding="utf-8"?>
<!-- Generator: Adobe Illustrator 23.0.3, SVG Export Plug-In . SVG Version: 6.00 Build 0)  -->
<svg version="1.1" id="Layer_1" xmlns="http://www.w3.org/2000/svg" xmlns:xlink="http://www.w3.org/1999/xlink" x="0px" y="0px"
	 viewBox="0 0 75.5 69.6" style="enable-background:new 0 0 75.5 69.6;" xml:space="preserve">
<style type="text/css">
	.st0{opacity:0.2;fill:url(#SVGID_1_);}
	.st1{fill:#0C5ADB;}
</style>
<g>
	<linearGradient id="SVGID_1_" gradientUnits="userSpaceOnUse" x1="8.7697" y1="9.3494" x2="53.0467" y2="53.6264">
		<stop  offset="0" style="stop-color:#0C5ADB"/>
		<stop  offset="9.294490e-02" style="stop-color:#135EDC"/>
		<stop  offset="0.2236" style="stop-color:#256BDF"/>
		<stop  offset="0.3767" style="stop-color:#437FE3"/>
		<stop  offset="0.5466" style="stop-color:#6D9CE9"/>
		<stop  offset="0.7305" style="stop-color:#A3C0F1"/>
		<stop  offset="0.9234" style="stop-color:#E3ECFB"/>
		<stop  offset="1" style="stop-color:#FFFFFF"/>
	</linearGradient>
	<path class="st0" d="M1,36.9L1.2,37c0.2,0.4,0.4,0.7,0.8,0.9L2.2,38c0.2,0.4,0.4,0.7,0.8,0.9L3.2,39c0.2,0.4,0.4,0.7,0.8,0.9
		L4.2,40c0.2,0.4,0.4,0.7,0.8,0.9L5.2,41c0.2,0.4,0.4,0.7,0.8,0.9L6.2,42c0.2,0.4,0.4,0.7,0.8,0.9L7.2,43c0.2,0.4,0.4,0.7,0.8,0.9
		L8.2,44c0.2,0.4,0.4,0.7,0.8,0.9L9.2,45c0.2,0.4,0.4,0.7,0.8,0.9l0.2,0.1c0.2,0.4,0.4,0.7,0.8,0.9l0.2,0.1c0.2,0.4,0.4,0.7,0.8,0.9
		l0.2,0.1c0.2,0.4,0.4,0.7,0.8,0.9l0.2,0.1c0.2,0.4,0.4,0.7,0.8,0.9l0.2,0.1c0.2,0.4,0.4,0.7,0.8,0.9l0.2,0.1
		c0.2,0.4,0.4,0.7,0.8,0.9l0.2,0.1c0.2,0.4,0.4,0.7,0.8,0.9l0.2,0.1c0.2,0.4,0.4,0.7,0.8,0.9l0.2,0.1c0.2,0.4,0.4,0.7,0.8,0.9
		l0.2,0.1c0.2,0.4,0.4,0.7,0.8,0.9l0.2,0.1c0.2,0.4,0.4,0.7,0.8,0.9l0.2,0.1c0.2,0.4,0.4,0.7,0.8,0.9l0.2,0.1
		c0.2,0.4,0.4,0.7,0.8,0.9l0.2,0.1c0.2,0.4,0.4,0.7,0.8,0.9l0.2,0.1c0.2,0.4,0.4,0.7,0.8,0.9l0.2,0.1c0.2,0.4,0.4,0.7,0.8,0.9
		l0.2,0.1c0.2,0.4,0.4,0.7,0.8,0.9l0.2,0.1c0.2,0.4,0.4,0.7,0.8,0.9l0.2,0.1c0.2,0.4,0.4,0.7,0.8,0.9l0.2,0.1
		c0.2,0.4,0.4,0.7,0.8,0.9l0.2,0.1c0.2,0.4,0.4,0.7,0.8,0.9l0.2,0.1c0.2,0.4,0.4,0.7,0.8,0.9l0.2,0.1c0.2,0.4,0.4,0.7,0.8,0.9
		l0.2,0.1c0.1,0.2,0.2,0.4,0.4,0.6l42-29c-0.2-0.2-0.4-0.5-0.6-0.6L74.7,40c-0.2-0.4-0.4-0.7-0.8-0.9L73.7,39
		c-0.2-0.4-0.4-0.7-0.8-0.9L72.7,38c-0.2-0.4-0.4-0.7-0.8-0.9L71.7,37c-0.2-0.4-0.4-0.7-0.8-0.9L70.7,36c-0.2-0.4-0.4-0.7-0.8-0.9
		L69.7,35c-0.2-0.4-0.4-0.7-0.8-0.9L68.7,34c-0.2-0.4-0.4-0.7-0.8-0.9L67.7,33c-0.2-0.4-0.4-0.7-0.8-0.9L66.7,32
		c-0.2-0.4-0.4-0.7-0.8-0.9L65.7,31c-0.2-0.4-0.4-0.7-0.8-0.9L64.7,30c-0.2-0.4-0.4-0.7-0.8-0.9L63.7,29c-0.2-0.4-0.4-0.7-0.8-0.9
		L62.7,28c-0.2-0.4-0.4-0.7-0.8-0.9L61.7,27c-0.2-0.4-0.4-0.7-0.8-0.9L60.7,26c-0.2-0.4-0.4-0.7-0.8-0.9L59.7,25
		c-0.2-0.4-0.4-0.7-0.8-0.9L58.7,24c-0.2-0.4-0.4-0.7-0.8-0.9L57.7,23c-0.2-0.4-0.4-0.7-0.8-0.9L56.7,22c-0.2-0.4-0.4-0.7-0.8-0.9
		L55.7,21c-0.2-0.4-0.4-0.7-0.8-0.9L54.7,20c-0.2-0.4-0.4-0.7-0.8-0.9L53.7,19c-0.2-0.4-0.4-0.7-0.8-0.9L52.7,18
		c-0.2-0.4-0.4-0.7-0.8-0.9L51.7,17c-0.2-0.4-0.4-0.7-0.8-0.9L50.7,16c-0.2-0.4-0.4-0.7-0.8-0.9L49.7,15c-0.2-0.4-0.4-0.7-0.8-0.9
		L48.7,14c-0.2-0.4-0.4-0.7-0.8-0.9L47.7,13c-0.2-0.4-0.4-0.7-0.8-0.9L24.8,0.2c-0.5-0.3-1.2-0.3-1.7,0L1,12.1
		c-0.3,0.2-0.5,0.4-0.7,0.8c-0.2,0.4-0.3,0.9-0.1,1.4C-0.2,15,0.2,15.9,1,16.3l0.2,0.1c0.2,0.4,0.4,0.7,0.8,0.9l0.2,0.1
		c0.2,0.4,0.4,0.7,0.8,0.9l0.2,0.1c0.2,0.4,0.4,0.7,0.8,0.9l0.2,0.1c0.1,0.4,0.4,0.7,0.8,0.9l-4,2.1c-0.3,0.2-0.5,0.4-0.7,0.7
		c-0.2,0.4-0.3,0.9-0.1,1.4c-0.2,0.8,0.1,1.7,0.9,2.1l0.2,0.1c0.2,0.4,0.4,0.7,0.8,0.9l0.2,0.1c0.2,0.4,0.4,0.7,0.8,0.9l0.2,0.1
		c0.2,0.4,0.4,0.7,0.8,0.9l0.2,0.1c0.1,0.4,0.4,0.7,0.8,0.9l-4,2.1c-0.3,0.1-0.5,0.4-0.7,0.7c-0.2,0.4-0.3,0.9-0.1,1.4
		C-0.2,35.6,0.2,36.5,1,36.9z"/>
	<path class="st1" d="M40.3,29.2l6.6,3.6c0.9,0.5,1.2,1.6,0.8,2.5c-0.2,0.3-0.5,0.6-0.8,0.7L24.8,47.8c-0.6,0.3-1.2,0.3-1.7,0
		L1,35.9c-0.9-0.5-1.2-1.6-0.7-2.5c0.2-0.3,0.5-0.6,0.7-0.7l6.6-3.6L1,25.6c-0.9-0.5-1.2-1.6-0.7-2.5c0.2-0.3,0.5-0.6,0.7-0.7
		l6.6-3.5L1,15.3c-0.9-0.5-1.2-1.6-0.7-2.5c0.2-0.3,0.5-0.6,0.7-0.8L23.1,0.2c0.6-0.3,1.2-0.3,1.7,0l22.1,11.8
		c0.9,0.5,1.2,1.6,0.8,2.5c-0.2,0.3-0.5,0.6-0.8,0.7l-6.6,3.6l6.6,3.5c0.9,0.5,1.2,1.6,0.8,2.5c-0.2,0.3-0.5,0.6-0.8,0.7L40.3,29.2
		L40.3,29.2z M42.1,34.3L42.1,34.3l-5.7-3.1l-11.6,6.2c-0.2,0.1-0.4,0.1-0.6,0.2l-0.1,0H24h0h-0.1h0h-0.2l0,0
		c-0.2-0.1-0.4-0.1-0.6-0.2l-11.6-6.2l-5.7,3.1l18.2,9.8L42.1,34.3L42.1,34.3z M23.9,33.8L23.9,33.8c6-3.2,12.1-6.5,18.2-9.8
		l-5.7-3.1l-11.6,6.2c-0.2,0.1-0.4,0.2-0.6,0.2l-0.1,0H24h0h-0.1h0h-0.2l0,0c-0.2,0-0.4-0.1-0.6-0.2l-11.6-6.2L5.7,24
		C11.8,27.2,17.8,30.5,23.9,33.8L23.9,33.8z M23.9,23.4L23.9,23.4c6-3.2,12.1-6.5,18.2-9.8L23.9,3.9L5.7,13.7
		C11.8,16.9,17.8,20.2,23.9,23.4L23.9,23.4z"/>
</g>
</svg>
