<?xml version="1.0" encoding="utf-8"?>
<!-- Generator: Adobe Illustrator 23.0.3, SVG Export Plug-In . SVG Version: 6.00 Build 0)  -->
<svg version="1.1" id="Layer_1" xmlns="http://www.w3.org/2000/svg" xmlns:xlink="http://www.w3.org/1999/xlink" x="0px" y="0px"
	 viewBox="0 0 80 76.4" style="enable-background:new 0 0 80 76.4;" xml:space="preserve">
<style type="text/css">
	.st0{opacity:0.2;fill:url(#SVGID_1_);}
	.st1{fill:#0C5ADB;}
</style>
<g>
	<linearGradient id="SVGID_1_" gradientUnits="userSpaceOnUse" x1="2.4483" y1="-1.1375" x2="58.2951" y2="54.7093">
		<stop  offset="0" style="stop-color:#0C5ADB"/>
		<stop  offset="9.294490e-02" style="stop-color:#135EDC"/>
		<stop  offset="0.2236" style="stop-color:#256BDF"/>
		<stop  offset="0.3767" style="stop-color:#437FE3"/>
		<stop  offset="0.5466" style="stop-color:#6D9CE9"/>
		<stop  offset="0.7305" style="stop-color:#A3C0F1"/>
		<stop  offset="0.9234" style="stop-color:#E3ECFB"/>
		<stop  offset="1" style="stop-color:#FFFFFF"/>
	</linearGradient>
	<path class="st0" d="M1.1,39.7c0.2,0.5,0.5,0.8,1,1c0.2,0.5,0.5,0.8,1,1c0.2,0.5,0.5,0.8,1,1c0.2,0.5,0.5,0.8,1,1
		c0.2,0.5,0.5,0.8,1,1c0.2,0.5,0.5,0.8,1,1c0.2,0.5,0.5,0.8,1,1c0.2,0.5,0.5,0.8,1,1c0.2,0.5,0.5,0.8,1,1c0.2,0.5,0.5,0.8,1,1
		c0.2,0.5,0.5,0.8,1,1c0.2,0.5,0.5,0.8,1,1c0.2,0.5,0.5,0.8,1,1c0.2,0.5,0.5,0.8,1,1c0.2,0.5,0.5,0.8,1,1c0.2,0.5,0.5,0.8,1,1
		c0.2,0.5,0.5,0.8,1,1c0.2,0.5,0.5,0.8,1,1c0.2,0.5,0.5,0.8,1,1c0.2,0.5,0.5,0.8,1,1c0.2,0.5,0.5,0.8,1,1c0.2,0.5,0.5,0.8,1,1
		c0.2,0.5,0.5,0.8,1,1c0.2,0.5,0.5,0.8,1,1c0.2,0.5,0.5,0.8,1,1c0.2,0.5,0.5,0.8,1,1c0.2,0.5,0.5,0.8,1,1c0.2,0.5,0.5,0.8,1,1
		c0.2,0.5,0.5,0.8,1,1c0.2,0.5,0.5,0.8,1,1c0.2,0.5,0.5,0.8,1,1c0.2,0.5,0.5,0.8,1,1c0.2,0.5,0.5,0.8,1,1c0.2,0.5,0.5,0.8,1,1
		c0.2,0.5,0.5,0.8,1,1c0.2,0.5,0.5,0.8,1,1c0.1,0.3,0.3,0.6,0.6,0.8L80,34.2c0,0-0.1,0-0.1-0.1c-0.2-0.5-0.5-0.8-1-1
		c-0.2-0.5-0.5-0.8-1-1c-0.2-0.5-0.5-0.8-1-1c-0.2-0.5-0.5-0.8-1-1c-0.2-0.5-0.5-0.8-1-1c-0.2-0.5-0.5-0.8-1-1c-0.2-0.5-0.5-0.8-1-1
		c-0.2-0.5-0.5-0.8-1-1c-0.2-0.5-0.5-0.8-1-1c-0.2-0.5-0.5-0.8-1-1c-0.2-0.5-0.5-0.8-1-1c-0.2-0.5-0.5-0.8-1-1c-0.2-0.5-0.5-0.8-1-1
		c-0.2-0.5-0.5-0.8-1-1c-0.2-0.5-0.5-0.8-1-1c-0.2-0.5-0.5-0.8-1-1c-0.2-0.5-0.5-0.8-1-1c-0.2-0.5-0.5-0.8-1-1c-0.2-0.5-0.5-0.8-1-1
		c-0.2-0.5-0.5-0.8-1-1c-0.2-0.5-0.5-0.8-1-1c-0.2-0.5-0.5-0.8-1-1c-0.2-0.5-0.5-0.8-1-1c-0.2-0.5-0.5-0.8-1-1c-0.2-0.5-0.5-0.8-1-1
		c-0.2-0.5-0.5-0.8-1-1c-0.2-0.5-0.5-0.8-1-1c-0.2-0.5-0.5-0.8-1-1c-0.2-0.5-0.5-0.8-1-1c-0.2-0.5-0.5-0.8-1-1c-0.2-0.5-0.5-0.8-1-1
		c-0.2-0.5-0.5-0.8-1-1c-0.2-0.5-0.5-0.8-1-1C46.6,0.5,45.9,0,45.2,0H1.9H1.8C0.8,0,0,0.8,0,1.8v1v34.1V37v0.9V38
		C0,38.8,0.5,39.4,1.1,39.7z"/>
	<path class="st1" d="M47.9,35.4c-0.1-0.3-0.3-0.5-0.6-0.5L47,34.7V1.8v0c0-1-0.8-1.8-1.8-1.8H1.9H1.8C0.8,0,0,0.8,0,1.8v35.1V37
		c0,1,0.8,1.8,1.8,1.8h19.9v2l0,0.2h-10c-0.6,0-1.1,0.5-1.1,1.1c0,0.6,0.5,1.1,1.1,1.1h21.8l1.4,4.1c0.2,0.6,0.8,0.9,1.4,0.7
		c0.3-0.1,0.5-0.3,0.6-0.5v0l2.4-4.5l4.3,4.3l0,0c0.4,0.5,1.4,0.5,1.8,0l2-2c0.4-0.4,0.4-1.3,0-1.8l-4.4-4.4l4.5-2.4
		C48,36.5,48.2,35.9,47.9,35.4z M3.6,35.2c0-9.2,0-22.4,0-31.6h39.8v29.9l-12.8-4.3c-0.6-0.2-1.2,0.1-1.4,0.7
		c-0.1,0.2-0.1,0.4,0,0.7v0l1.6,4.6H3.6z M25.3,41v-0.2v-2H32l0.7,2.2H25.3z M40.7,37.9c-0.1,0-0.2,0.1-0.3,0.2
		c-0.4,0.4-0.4,1.1,0,1.5l4.8,4.8l-0.7,0.7l-4.8-4.8c-0.1-0.1-0.2-0.2-0.3-0.2c-0.5-0.3-1.2-0.1-1.4,0.5l-1.9,3.5L31.9,32l12.2,4.1
		L40.7,37.9z M10.7,14.1v0.7c0,0.1,0,0.2,0.1,0.2h0c0,0,0.1,0.1,0.2,0.1h1.8h1.9h0.1c0.7,0,1.4,0.4,1.9,0.8h0c0.5,0.5,0.8,1.2,0.8,2
		v0.7v0v1.7c0,0.8-0.3,1.5-0.8,2c-0.5,0.5-1.2,0.8-2,0.8h-0.6V24c0,0.7-0.6,1.3-1.3,1.3c-0.7,0-1.3-0.6-1.3-1.3v-0.8H11
		c-0.8,0-1.5-0.3-2-0.8c-0.5-0.5-0.8-1.2-0.8-2c0-0.7,0.6-1.3,1.3-1.3c0.7,0,1.3,0.6,1.3,1.3c0,0.1,0,0.2,0.1,0.2
		c0,0,0.1,0.1,0.2,0.1h1.8h0h0h0h1.8c0,0,0.1,0,0.2-0.1c0,0,0.1-0.1,0.1-0.2v-0.7v-0.1V18c0-0.1,0-0.2-0.1-0.2c0,0-0.1-0.1-0.2-0.1
		h-1.9H11l-0.1,0c-0.7,0-1.4-0.3-1.9-0.8c-0.5-0.5-0.8-1.2-0.8-2v-0.7v0v-0.9v0v-0.7c0-0.8,0.3-1.5,0.8-2c0.5-0.5,1.2-0.8,2-0.8h0.6
		V8.8c0-0.7,0.6-1.3,1.3-1.3c0.7,0,1.3,0.6,1.3,1.3v0.8h0.6c0.8,0,1.5,0.3,2,0.8h0c0.5,0.5,0.8,1.2,0.8,2c0,0.7-0.6,1.3-1.3,1.3
		c-0.7,0-1.3-0.6-1.3-1.3c0-0.1,0-0.2-0.1-0.2c0,0-0.1-0.1-0.2-0.1h-1.8h-0.1h0H11c-0.1,0-0.2,0-0.2,0.1c0,0-0.1,0.1-0.1,0.2v0.7v0
		V14.1L10.7,14.1z"/>
</g>
</svg>
