<?xml version="1.0" encoding="utf-8"?>
<!-- Generator: Adobe Illustrator 23.0.3, SVG Export Plug-In . SVG Version: 6.00 Build 0)  -->
<svg version="1.1" id="Layer_1" xmlns="http://www.w3.org/2000/svg" xmlns:xlink="http://www.w3.org/1999/xlink" x="0px" y="0px"
	 viewBox="0 0 74.1 69.6" style="enable-background:new 0 0 74.1 69.6;" xml:space="preserve">
<style type="text/css">
	.st0{opacity:0.2;fill:url(#SVGID_1_);}
	.st1{fill:#0C5ADB;}
</style>
<linearGradient id="SVGID_1_" gradientUnits="userSpaceOnUse" x1="6.3651" y1="1.8624" x2="55.2703" y2="50.7677">
	<stop  offset="0" style="stop-color:#0C5ADB"/>
	<stop  offset="9.294490e-02" style="stop-color:#135EDC"/>
	<stop  offset="0.2236" style="stop-color:#256BDF"/>
	<stop  offset="0.3767" style="stop-color:#437FE3"/>
	<stop  offset="0.5466" style="stop-color:#6D9CE9"/>
	<stop  offset="0.7305" style="stop-color:#A3C0F1"/>
	<stop  offset="0.9234" style="stop-color:#E3ECFB"/>
	<stop  offset="1" style="stop-color:#FFFFFF"/>
</linearGradient>
<path class="st0" d="M22.9,52.5c0.3,0.3,0.7,0.7,1,1c0.3,0.3,0.7,0.7,1,1c0.3,0.3,0.7,0.7,1,1c0.3,0.3,0.7,0.7,1,1
	c0.3,0.3,0.7,0.7,1,1c0.3,0.3,0.7,0.7,1,1c0.3,0.3,5.5,5.6,5.9,5.9c0.3,0.3,0.7,0.7,1,1c0.3,0.3,0.7,0.7,1,1c0.3,0.3,0.7,0.7,1,1
	c0.3,0.3,0.7,0.7,1,1c0.3,0.3,0.7,0.7,1,1c0,0,0.1,0.1,0.1,0.1l34.1-34.1c-0.2-0.2-0.4-0.3-0.6-0.4c-0.2-0.5-0.5-0.8-1-1
	c-0.2-0.5-0.5-0.8-1-1c-0.2-0.5-0.5-0.8-1-1c-0.2-0.5-0.5-0.8-1-1c-0.2-0.5-0.5-0.8-1-1c-0.2-0.5-0.5-0.8-1-1c-0.2-0.5-0.5-0.8-1-1
	c-0.2-0.5-0.5-0.8-1-1c-0.2-0.5-0.5-0.8-1-1c-0.2-0.5-5.4-5.7-5.9-5.9c-0.2-0.5-0.5-0.8-1-1c-0.2-0.5-0.5-0.8-1-1
	c-0.2-0.5-0.5-0.8-1-1c-0.2-0.5-0.5-0.8-1-1c-0.2-0.5-0.5-0.8-1-1c-0.2-0.5-0.5-0.8-1-1c-0.2-0.5-0.5-0.8-1-1c-0.2-0.5-0.5-0.8-1-1
	c-0.2-0.5-0.5-0.8-1-1c-0.2-0.5-0.5-0.8-1-1c-0.2-0.5-0.5-0.8-1-1c-0.2-0.5-0.5-0.8-1-1c-0.2-0.5-0.5-0.8-1-1c-0.2-0.5-0.5-0.8-1-1
	c-0.2-0.5-0.5-0.8-1-1c-0.2-0.5-0.5-0.8-1-1c-0.2-0.5-0.5-0.8-1-1c-0.2-0.5-0.5-0.8-1-1c-0.2-0.5-0.5-0.8-1-1
	C39.3,0.5,38.7,0,37.9,0h-0.1H7.7c-1,0-1.9,0.8-1.9,1.8v0.1c0,2.3-1.8,4.3-4.1,4.6C0.8,6.6,0.1,7.4,0.1,8.3c0,0.4,0,0.8-0.1,1.3
	c0,0.6,0,1,0,1.3c0,0.1,0,0.2,0,0.2c0,0.3,0,0.6,0,0.8c0,11.4,4.7,22.8,12.9,30.6c0.3,0.3,0.7,0.7,1,1c0.3,0.3,0.7,0.7,1,1
	c0.3,0.3,0.7,0.7,1,1c0.3,0.3,0.7,0.7,1,1c0.3,0.3,0.7,0.7,1,1c0.3,0.3,0.7,0.7,1,1c0.3,0.3,0.7,0.7,1,1c0.3,0.3,0.7,0.7,1,1
	c0.3,0.3,0.7,0.7,1,1C22.2,51.9,22.6,52.2,22.9,52.5z"/>
<path class="st1" d="M23.6,47.8c-0.5,0.2-1.1,0.3-1.6,0C8.1,41.1,0,26.1,0,11c0-0.3,0-0.7,0-1.3c0-0.5,0-0.9,0.1-1.3
	c0-0.9,0.7-1.7,1.6-1.8C4,6.2,5.9,4.2,5.9,1.9V1.8c0-1,0.8-1.8,1.9-1.8h30.1h0.1c1,0,1.8,0.8,1.8,1.8c0,2.4,1.8,4.4,4.1,4.7
	c0.9,0.1,1.6,0.8,1.6,1.7c0,0.4,0,0.8,0.1,1.4c0,0.6,0,1,0,1.3C45.6,26.1,37.5,41.1,23.6,47.8L23.6,47.8z M33.6,14.5L33.6,14.5
	c0.7-0.7,1.9-0.7,2.6,0c0.7,0.7,0.7,1.9,0,2.6L22.9,30.4c-0.7,0.7-1.9,0.7-2.6,0L13,23.1c-0.7-0.7-0.7-1.9,0-2.6
	c0.7-0.7,1.9-0.7,2.6,0l6,6L33.6,14.5L33.6,14.5z M22.8,44.1L22.8,44.1C34.9,37.8,41.9,24.4,41.9,11l0-1.1c-2.8-0.9-5-3.3-5.6-6.1
	H9.4C8.7,6.5,6.5,8.9,3.7,9.8V11C3.7,24.4,10.7,37.8,22.8,44.1L22.8,44.1z"/>
</svg>
