<?xml version="1.0" encoding="utf-8"?>
<!-- Generator: Adobe Illustrator 23.0.3, SVG Export Plug-In . SVG Version: 6.00 Build 0)  -->
<svg version="1.1" id="Layer_1" xmlns="http://www.w3.org/2000/svg" xmlns:xlink="http://www.w3.org/1999/xlink" x="0px" y="0px"
	 viewBox="0 0 67.3 67.8" style="enable-background:new 0 0 67.3 67.8;" xml:space="preserve">
<style type="text/css">
	.st0{opacity:0.2;fill:url(#SVGID_1_);}
	.st1{fill:#0C5ADB;}
</style>
<g>
	<linearGradient id="SVGID_1_" gradientUnits="userSpaceOnUse" x1="6.9809" y1="7.4938" x2="49.5944" y2="50.1073">
		<stop  offset="0" style="stop-color:#0C5ADB"/>
		<stop  offset="8.955014e-02" style="stop-color:#135FDC"/>
		<stop  offset="0.2245" style="stop-color:#286DDF"/>
		<stop  offset="0.3881" style="stop-color:#4A84E4"/>
		<stop  offset="0.5742" style="stop-color:#79A4EB"/>
		<stop  offset="0.7791" style="stop-color:#B6CDF4"/>
		<stop  offset="0.9971" style="stop-color:#FEFEFF"/>
		<stop  offset="1" style="stop-color:#FFFFFF"/>
	</linearGradient>
	<path class="st0" d="M9.4,44.3l1,1c0,0,0,0,0,0l1,1c0,0,0,0,0,0l1,1c0,0,0,0,0,0l1,1c0,0,0,0,0,0l1,1c0,0,0,0,0,0l1,1c0,0,0,0,0,0
		l1,1c0,0,0,0,0,0l1,1c0,0,0,0,0,0l1,1c0,0,0,0,0,0l1,1c0,0,0,0,0,0l1,1c0,0,0,0,0,0l1,1c0,0,0,0,0,0l1,1c0,0,0,0,0,0l1,1
		c0,0,0,0,0,0l1,1c0,0,0,0,0,0l1,1c0,0,0,0,0,0l1,1c0,0,0,0,0,0l1,1c0,0,0,0,0,0l1,1c0,0,0,0,0,0l1,1c0,0,0,0,0,0l1,1c0,0,0,0,0,0
		l1,1c0,0,0,0,0,0l1,1c0,0,0,0,0,0l0.5,0.5l34.4-34.4l-0.7-0.7v0l-1-1v0l-1-1v0l-1-1v0l-1-1v0l-1-1v0l-1-1v0l-1-1v0l-1-1v0l-1-1v0
		l-1-1v0l-1-1v0l-1-1v0l-1-1v0l-1-1v0l-1-1v0l-1-1v0l-1-1v0l-1-1v0l-1-1v0l-1-1v0l-1-1v0l-1-1v0l-1-1v0l-1-1v0l-1-1v0l-1-1v0l-1-1v0
		l-1-1C37.9,4,36.7,4,36,4.7l-1.7,1.6c-0.1-0.1-0.2-0.1-0.3-0.2c-0.2-0.4-0.5-0.8-1-1c-0.2-0.4-0.5-0.8-1-1c-0.2-0.4-0.5-0.8-1-1
		c-0.2-0.4-0.5-0.8-1-1c-0.2-0.4-0.5-0.8-1-1C28.7,0.5,28.1,0,27.3,0h-6.6h-0.1c-1,0-1.8,0.9-1.8,1.9v1v1.9C18,5,17.2,5.3,16.4,5.6
		c-0.8,0.3-1.6,0.7-2.3,1.1l-2.1-2C11.3,4,10.1,4,9.4,4.7L4.7,9.4C4.2,9.9,4,10.6,4.2,11.2c-0.2,0.6,0,1.3,0.5,1.8l1,1c0,0,0,0,0,0
		l0.7,0.7c-0.3,0.6-0.6,1.1-0.8,1.7C5.2,17.2,5,18,4.7,18.8H1.8c-1,0-1.8,0.8-1.8,1.8v1v5.5v0.2v0.8v0.2c0,0.8,0.5,1.4,1.1,1.7
		c0.2,0.5,0.5,0.8,1,1c0.2,0.5,0.5,0.8,1,1c0.2,0.5,0.5,0.8,1,1c0.2,0.5,0.5,0.8,1,1c0.1,0.3,0.4,0.6,0.7,0.8L4.7,36
		c-0.5,0.5-0.6,1.2-0.5,1.8c-0.2,0.6,0,1.3,0.5,1.8L9.4,44.3C9.4,44.3,9.4,44.3,9.4,44.3z"/>
	<path class="st1" d="M24,15.3c2.4,0,4.5,1,6.1,2.5c1.6,1.6,2.5,3.7,2.5,6.1c0,2.4-1,4.6-2.5,6.1c-1.6,1.6-3.7,2.5-6.1,2.5
		c-2.4,0-4.6-1-6.1-2.5c-1.6-1.6-2.5-3.7-2.5-6.1c0-2.4,1-4.5,2.5-6.1C19.4,16.3,21.6,15.3,24,15.3L24,15.3z M29.2,4.8L29.2,4.8
		C30,5,30.8,5.3,31.6,5.6c0.8,0.3,1.6,0.7,2.3,1.1l2.1-2c0.7-0.7,1.9-0.7,2.6,0l4.7,4.7c0.7,0.7,0.7,1.9,0,2.6l-2,2.1
		c0.4,0.7,0.8,1.5,1.1,2.3c0.3,0.8,0.6,1.6,0.8,2.4h2.9c1,0,1.9,0.8,1.9,1.8l0,0.2v6.5c0,1-0.8,1.8-1.8,1.8h-2.9
		c-0.2,0.8-0.5,1.7-0.8,2.5l0,0.1c-0.3,0.8-0.7,1.5-1.1,2.2l2,2.1c0.7,0.7,0.7,1.9,0,2.6l-4.7,4.7c-0.7,0.7-1.9,0.7-2.6,0l-2.1-2.1
		c-0.7,0.4-1.5,0.8-2.3,1.2c-0.8,0.3-1.6,0.6-2.4,0.9v2.9c0,1-0.8,1.9-1.9,1.9h-0.1h-6.5c-1,0-1.8-0.9-1.8-1.9h0v-2.9
		c-0.8-0.2-1.6-0.5-2.4-0.9c-0.8-0.3-1.6-0.7-2.3-1.2L12,43.3c-0.7,0.7-1.9,0.7-2.6,0l-4.7-4.7C4,37.9,4,36.7,4.7,36l2.1-2.1
		c-0.5-0.7-0.8-1.5-1.2-2.3C5.2,30.8,5,30,4.7,29.2H1.8c-1,0-1.8-0.8-1.8-1.8v-0.2v-6.5c0-1,0.8-1.8,1.8-1.8h2.9
		C5,18,5.2,17.2,5.6,16.4c0.3-0.8,0.7-1.6,1.2-2.3L4.7,12C4,11.3,4,10.1,4.7,9.4l4.7-4.7C10.1,4,11.3,4,12,4.7l2.1,2
		c0.7-0.4,1.5-0.8,2.3-1.1C17.2,5.3,18,5,18.8,4.8V1.9c0-1,0.8-1.9,1.8-1.9h0.1h6.6c1,0,1.9,0.9,1.9,1.9v0V4.8L29.2,4.8z M30.2,9
		L30.2,9c-1-0.4-2-0.7-3.1-0.9c-0.9-0.1-1.7-0.9-1.7-1.9V3.7h-3v2.5c0,0.9-0.6,1.6-1.5,1.8c-1.1,0.2-2.2,0.5-3.2,0.9
		c-1,0.4-2,1-2.9,1.6h0c-0.7,0.5-1.7,0.4-2.3-0.2l-1.8-1.8l-2.1,2.1l1.7,1.8c0.7,0.6,0.8,1.6,0.3,2.4c-0.6,0.9-1.2,1.9-1.6,3
		c-0.4,1-0.7,2-0.9,3.1c-0.1,0.9-0.9,1.7-1.8,1.7H3.7v2.9h2.5c0.9,0,1.6,0.6,1.8,1.5c0.2,1.1,0.5,2.2,1,3.2c0.4,1,1,2,1.6,2.9v0l0,0
		c0.5,0.7,0.4,1.7-0.2,2.3l-1.8,1.8l2.1,2.1l1.7-1.7c0.6-0.6,1.6-0.8,2.4-0.3c0.9,0.6,1.9,1.2,3,1.6c1,0.4,2,0.7,3.1,0.9
		c0.9,0.1,1.6,0.9,1.6,1.8v2.5h3v-2.5c0-0.9,0.6-1.6,1.5-1.8c1.1-0.2,2.2-0.5,3.2-0.9c1-0.4,2-1,3-1.6l0,0l0,0
		c0.7-0.5,1.7-0.4,2.3,0.2l1.8,1.8l2.1-2.1l-1.8-1.8c-0.6-0.6-0.8-1.6-0.3-2.4c0.6-0.9,1.2-1.9,1.6-2.9l0-0.1c0.4-1,0.7-2,0.9-3.1
		c0.1-0.9,0.9-1.6,1.8-1.6h2.5v-2.9h-2.5c-0.9,0-1.6-0.6-1.8-1.5c-0.2-1.1-0.5-2.2-1-3.2c-0.4-1-1-2-1.6-2.9l0,0
		c-0.5-0.7-0.4-1.7,0.2-2.3l1.8-1.8l-2.1-2.1l-1.8,1.8c-0.6,0.7-1.6,0.8-2.4,0.3C32.2,10,31.2,9.4,30.2,9L30.2,9z M27.6,20.4
		L27.6,20.4c-0.9-0.9-2.2-1.5-3.6-1.5c-1.4,0-2.7,0.6-3.6,1.5c-0.9,0.9-1.5,2.2-1.5,3.6c0,1.4,0.6,2.7,1.5,3.6
		c0.9,0.9,2.2,1.5,3.6,1.5c1.4,0,2.7-0.6,3.6-1.5c0.9-0.9,1.5-2.2,1.5-3.6C29.1,22.6,28.5,21.3,27.6,20.4L27.6,20.4z"/>
</g>
</svg>
